<?xml version="1.0" encoding="utf-8"?>
<!-- Generator: Adobe Illustrator 16.0.4, SVG Export Plug-In . SVG Version: 6.00 Build 0)  -->
<!DOCTYPE svg PUBLIC "-//W3C//DTD SVG 1.1//EN" "http://www.w3.org/Graphics/SVG/1.1/DTD/svg11.dtd">
<svg version="1.1" id="Layer_1" xmlns="http://www.w3.org/2000/svg" xmlns:xlink="http://www.w3.org/1999/xlink" x="0px" y="0px"
	 width="120.775px" height="120.775px" viewBox="0 0 120.775 120.775" enable-background="new 0 0 120.775 120.775"
	 xml:space="preserve">
<g>
	<path d="M16.779,25.387c-5.5,0-10,4.5-10,10v49c0,5.5,4.5,10,10,10h86.858c5.5,0,10-4.5,10-10v-49c0-5.5-4.5-10-10-10H16.779z
		 M65.7,75.012c-2.071,1.78-2.505,1.681-2.505,1.681c-5.36-1.233-12.963-5.389-16.897-9.232l-27.71-27.06
		c-3.929-3.85-3.524-4.324,0.898-1.054c0,0,38.445,28.426,39.403,29.084c0.958,0.657,2.097,0.698,2.959,0.065
		c0.861-0.633,39.453-28.125,39.453-28.125c4.479-3.191,4.842-2.746,0.806,0.99C102.107,41.362,66.157,74.635,65.7,75.012z"/>
</g>
</svg>
